<?xml version="1.0" encoding="UTF-8"?><svg id="Layer_1" xmlns="http://www.w3.org/2000/svg" viewBox="0 0 945.42 1080"><path d="M547.14,210.63h-148.86c-89.25,0-161.6,72.35-161.6,161.6v335.55c0,89.25,72.35,161.6,161.6,161.6h148.86c89.25,0,161.6-72.35,161.6-161.6V372.22c0-89.25-72.35-161.6-161.6-161.6Zm-154.01,95.01c4.73-4.42,9.26-9.05,13.86-13.6,7.02-6.94,7.34-6.89,11.13,2.52,1.83,4.56,3.57,9.16,5.47,14.05,2.52-1.54,4.24-2.58,6.14-3.74,.77,1.35,1.33,2.31,1.87,3.28,6.55,11.69,12.34,23.9,19.81,34.98,14.68,21.75,32.95,39.89,57.07,51.35,4.47,2.13,5.13,4.39,3.04,9.06-2.9,6.5-6.78,12.76-8.46,19.56-1.9,7.71-6.31,12.89-12.09,17.51-2.4,1.92-4.79,3.85-7.19,5.77-5.04,4.04-5.57,3.88-7.72-2.42l-.09,.22c2.25-6.7,4.39-13.43,6.78-20.07,1.44-4-.23-6.38-3.39-8.54-6-4.1-11.86-8.41-17.8-12.62-1.27-.9-2.6-1.7-4.7-3.06,.14,2.39,.1,3.81,.31,5.19,3.09,19.41,3.55,38.93,3.62,58.56,.04,12.53,.74,25.38,3.56,37.53,6.6,28.43,41.93,43.49,67.49,29.72,14.28-7.7,17.51-24.15,6.42-35.88-4.34-4.59-9.94-8.28-15.54-11.32-6.85-3.73-14.39-3.36-21.67-.54-3.83,1.48-7.79,4.21-6.68,8.34,1,3.75,4.57,6.89,7.36,9.99,.34,.37,3.72-.83,4.21-1.95,4.03-9.26,10.8-12.85,20.35-10.37,8.59,2.23,11.56,7.68,8.77,16.11-5.26,15.92-25.47,26.48-41.75,21.81-22.13-6.35-29.72-27.76-15.29-45.51,6.32-7.77,13.99-15.21,22.54-20.25,27.26-16.08,57.16,1.1,68.29,20.63,6.58,11.55,7.43,23.24,1.37,35.23-4.73,9.37-10.94,17.65-19.16,24.19-20.33,16.17-43.91,21.89-69.29,19.42-23.76-2.31-40.63-18.37-46.17-41.65-3.22-13.55-4.03-27.31-2.88-41.01,3.44-41.14-4.31-80.29-20.14-118.03-6.51-15.52-13.74-30.74-20.93-45.96-1.7-3.59-1.27-5.93,1.49-8.51Zm-59.9,374.27c-9.99-8.99-13.43-20.18-11.48-33.34,3.3-22.24,24.96-49.08,56.19-43.96,9.8,1.61,19.64,5.76,28.35,10.72,19.87,11.32,20.56,34.03,2.22,47.96-13.49,10.25-36.15,7.72-46.82-5.22-5.65-6.85-4.85-13.01,2.35-18.19,8.01-5.77,15.61-4.86,22.72,2.3,.86,.87,4.45,.76,4.63,.29,1.48-3.9,3.67-8.12,3.24-11.98-.47-4.25-5.15-5.35-9.25-5.35-7.8,0-14.96,2.39-20,8.35-4.12,4.86-8,10.33-10.38,16.18-6.09,14.95,2.88,29.12,18.98,31.12,28.81,3.59,56.29-23.25,52.15-52.14-1.77-12.34-5.77-24.57-10.26-36.27-7.04-18.32-13.68-36.69-17.83-55.9-.29-1.36-.85-2.67-1.59-4.95-1.46,2.02-2.42,3.25-3.28,4.55-4.01,6.07-7.91,12.21-12.02,18.2-2.16,3.16-2.86,5.98-.07,9.19,4.63,5.33,9.07,10.83,13.58,16.26l-.17-.17c.27,6.65-.16,7-6.32,5.05-2.93-.93-5.86-1.86-8.79-2.78-7.06-2.22-13.04-5.45-17.61-11.94-4.03-5.73-9.91-10.16-14.97-15.17-3.64-3.6-3.85-5.95-.45-9.55,18.33-19.42,28.8-42.94,34.6-68.53,2.96-13.03,3.93-26.5,5.81-39.78,.15-1.1,.33-2.19,.56-3.74,2.19,.39,4.17,.74,7.07,1.26,0-5.25-.05-10.16,.01-15.07,.12-10.14,.4-10.31,9.46-6.38,5.94,2.58,11.84,5.25,17.85,7.66,3.51,1.41,4.75,3.43,4.47,7.39-1.2,16.79-2.43,33.6-2.88,50.42-1.09,40.91,5.85,80.21,23.96,117.31,6.03,12.36,10.26,25.48,12.16,39.27,3.27,23.7-6.64,44.78-27.96,55.53-22.77,11.49-46.81,14.7-71.62,6.98-10.03-3.12-18.82-8.59-26.62-15.61Zm276.52-11c-17.54,14.06-51.67,19.01-71.09-5.98-6.09-7.84-10.49-17.58-13.49-27.13-6.87-21.82,8.07-38.93,30.98-36.68,16.86,1.66,31.75,18.92,30.78,35.66-.52,8.86-5.29,12.84-14.09,11.74-9.79-1.22-14.76-7.05-15.09-17.14-.04-1.22-2.75-3.58-3.2-3.36-3.73,1.85-8.21,3.46-10.52,6.58-2.55,3.43,.13,7.43,3.14,10.21,5.72,5.3,12.6,8.42,20.34,7.48,6.33-.77,12.89-2.13,18.62-4.8,14.63-6.82,17.69-23.31,7.25-35.72-18.68-22.22-57.08-21.24-73.69,2.76-7.1,10.25-12.48,21.94-17.14,33.57-7.29,18.22-14.92,36.2-24.94,53.11-.71,1.2-1.2,2.53-2.21,4.71,2.45-.49,3.99-.74,5.5-1.11,7.07-1.72,14.1-3.57,21.2-5.17,3.73-.84,6.16-2.44,6.3-6.69,.23-7.06,.72-14.11,1.1-21.16v.24c4.33-5.06,4.88-5.02,8.08,.6,1.52,2.67,3.03,5.35,4.56,8.02,3.67,6.43,5.86,12.87,4.79,20.73-.95,6.94,.35,14.19,.66,21.3,.22,5.11-1.23,6.98-6.17,7.31-26.65,1.77-50.31,11.9-71.97,26.71-11.03,7.54-20.91,16.76-31.31,25.21-.86,.7-1.73,1.39-2.95,2.36-1.34-1.78-2.55-3.38-4.33-5.74-3.57,3.85-6.87,7.48-10.26,11.04-6.99,7.35-7.31,7.29-11.27-1.75-2.6-5.93-5.11-11.9-7.88-17.75-1.62-3.42-1.15-5.75,1.75-8.46,12.3-11.49,24.63-22.98,36.39-35.01,28.62-29.25,50.26-62.79,62.21-102.3,3.98-13.16,9.8-25.66,17.79-37.06,13.72-19.6,35.32-28.32,58.26-21.71,24.51,7.06,44.32,21.06,57.26,43.58,5.23,9.11,7.95,19.09,8.9,29.55,1.21,13.38-3.88,23.93-14.25,32.25Z"/></svg>