<svg id="SvgjsSvg1001" width="288" height="288" xmlns="http://www.w3.org/2000/svg" version="1.1" xmlns:xlink="http://www.w3.org/1999/xlink" xmlns:svgjs="http://svgjs.com/svgjs"><defs id="SvgjsDefs1002"></defs><g id="SvgjsG1008" transform="matrix(1,0,0,1,0,0)"><svg xmlns="http://www.w3.org/2000/svg" viewBox="0 0 32 32" width="288" height="288"><path d="M30.52,9.71l-14-8.56a1,1,0,0,0-1,0l-14,8.56a1,1,0,0,0-.33,1.37,1,1,0,0,0,1.37.34l.48-.3V28a2.93,2.93,0,0,0,2.85,3h20.3A2.93,2.93,0,0,0,29,28V11.12l.48.3a1,1,0,0,0,.52.14,1,1,0,0,0,.52-1.85ZM27,28a.94.94,0,0,1-.85,1H5.85A.94.94,0,0,1,5,28V9.9L16,3.17,27,9.9Z" fill="#dfc09a" class="color000 svgShape"></path></svg></g></svg>