<svg width="56" height="46" viewBox="0 0 56 46" fill="none" xmlns="http://www.w3.org/2000/svg">
<path d="M53.0746 0V8.77612H48.0597C43.602 8.77612 41.3731 11.005 41.3731 15.4627V22.1493H44.0896C47.4328 22.1493 50.2189 23.2637 52.4478 25.4925C54.8159 27.5821 56 30.2985 56 33.6418C56 36.9851 54.8159 39.7711 52.4478 42C50.2189 44.0896 47.4328 45.1343 44.0896 45.1343C40.7463 45.1343 37.8905 44.0199 35.5224 41.7911C33.2935 39.4229 32.1791 36.5672 32.1791 33.2239V15.8806C32.1791 5.29353 37.403 0 47.8507 0H53.0746ZM20.8955 0V8.77612H15.8806C11.4229 8.77612 9.19403 11.005 9.19403 15.4627V22.1493H11.9104C15.2537 22.1493 18.0398 23.2637 20.2687 25.4925C22.6368 27.5821 23.8209 30.2985 23.8209 33.6418C23.8209 36.9851 22.6368 39.7711 20.2687 42C18.0398 44.0896 15.2537 45.1343 11.9104 45.1343C8.56716 45.1343 5.71144 44.0199 3.34328 41.7911C1.11443 39.4229 0 36.5672 0 33.2239V15.8806C0 5.29353 5.22388 0 15.6716 0H20.8955Z" fill="#DFC09A"/>
</svg>
