<svg width="341" height="54" viewBox="0 0 341 54" fill="none" xmlns="http://www.w3.org/2000/svg">
<path d="M0 5.85285V0.366974H44.4516V5.85285H25.7168V52.4123H19.8169V5.85285H0Z" fill="#FCF9F5"/>
<path d="M38.7118 29.1891V23.8067H70.0745V0.658691H75.8144V52.4123H70.0745V29.1891H38.7118Z" fill="#FCF9F5"/>
<path d="M109.04 0.366974V5.6929H79.7665V0.366974H109.04ZM109.04 23.7031V29.0385H79.7665V23.7031H109.04ZM109.04 47.0487V52.4123H79.7665V47.0487H109.04Z" fill="#FCF9F5"/>
<path d="M129.488 29.1891V23.8067H160.85V0.658691H166.59V52.4123H160.85V29.1891H129.488Z" fill="#FCF9F5"/>
<path d="M171.097 26.3473C171.066 22.7483 171.834 19.1873 173.346 15.9213C174.793 12.7665 176.842 9.92476 179.378 7.55602C181.927 5.19049 184.891 3.3149 188.12 2.02311C194.828 -0.674369 202.32 -0.674369 209.028 2.02311C212.259 3.31713 215.225 5.19241 217.779 7.55602C220.307 9.92604 222.346 12.7679 223.783 15.9213C225.247 19.2022 226.003 22.7546 226.003 26.3473C226.003 29.94 225.247 33.4924 223.783 36.7733C222.349 39.9253 220.309 42.7645 217.779 45.1292C215.228 47.4989 212.261 49.3777 209.028 50.6715C202.317 53.3564 194.831 53.3564 188.12 50.6715C184.888 49.38 181.925 47.5008 179.378 45.1292C176.84 42.7656 174.791 39.9266 173.346 36.7733C171.835 33.5069 171.067 29.9461 171.097 26.3473ZM177.308 26.1873C177.287 29.0276 177.858 31.8411 178.983 34.4491C180.068 36.9617 181.635 39.2377 183.594 41.1488C185.556 43.0527 187.852 44.5776 190.369 45.6467C192.966 46.7398 195.756 47.3029 198.574 47.3029C201.392 47.3029 204.182 46.7398 206.779 45.6467C209.295 44.5776 211.592 43.0527 213.554 41.1488C215.513 39.2377 217.08 36.9617 218.165 34.4491C219.277 31.8382 219.85 29.0297 219.85 26.192C219.85 23.3544 219.277 20.5459 218.165 17.935C217.082 15.4211 215.515 13.1447 213.554 11.2352C211.593 9.32851 209.296 7.80048 206.779 6.72798C204.182 5.63483 201.392 5.07171 198.574 5.07171C195.756 5.07171 192.966 5.63483 190.369 6.72798C187.852 7.80048 185.555 9.32851 183.594 11.2352C181.632 13.1447 180.066 15.4211 178.983 17.935C177.858 20.5398 177.288 23.3501 177.308 26.1873Z" fill="#FCF9F5"/>
<path d="M235.686 0.658691V32.4354C235.701 32.6793 235.736 32.9216 235.79 33.16C235.859 33.5489 235.943 33.9629 236.044 34.402C236.144 34.8412 236.257 35.2834 236.382 35.7288C236.505 36.1523 236.599 36.4722 236.665 36.6698C237.17 38.2667 237.961 39.7588 238.998 41.0736C240.014 42.3643 241.216 43.4965 242.565 44.4329C243.919 45.3686 245.402 46.1009 246.968 46.6065C248.538 47.1234 250.18 47.3869 251.833 47.3875C253.444 47.3893 255.048 47.1612 256.595 46.71C258.129 46.2745 259.593 45.6217 260.942 44.7716C262.289 43.9223 263.5 42.8756 264.536 41.6664C265.6 40.426 266.449 39.0173 267.049 37.4979C267.115 37.2908 267.209 37.0274 267.331 36.698C267.453 36.3687 267.566 36.0393 267.67 35.757C267.773 35.4748 267.858 35.136 267.924 34.9008C267.973 34.7476 268.008 34.59 268.027 34.4303V0.658691H273.513V34.976C273.5 36.5751 273.147 38.1532 272.478 39.6057C270.329 44.3935 266.616 48.3087 261.949 50.7092C258.664 52.2816 255.061 53.0768 251.419 53.0333C248.702 53.0254 246.013 52.4951 243.496 51.4713C241.023 50.49 238.752 49.0609 236.796 47.2558C234.866 45.4599 233.303 43.3058 232.195 40.9136C231.042 38.426 230.457 35.7133 230.482 32.9718V0.658691H235.686Z" fill="#FCF9F5"/>
<path d="M282.34 43.5013C283.417 44.1744 284.539 44.7718 285.699 45.2891C286.856 45.8058 288.051 46.2306 289.275 46.5594C290.503 46.8815 291.768 47.0459 293.038 47.0487C294.254 47.0604 295.46 46.8301 296.586 46.3712C297.644 45.9408 298.604 45.3006 299.409 44.4893C300.207 43.6839 300.832 42.723 301.244 41.6663C301.678 40.5508 301.895 39.3628 301.884 38.1659V36.0487C301.699 35.3475 301.379 34.689 300.943 34.1103C300.517 33.5422 300.031 33.0216 299.494 32.5577C298.947 32.081 298.365 31.6469 297.753 31.2592C297.141 30.8639 296.529 30.4876 295.946 30.1488C295.78 30.0203 295.596 29.9158 295.4 29.8383L294.855 29.5748L288.127 26.9119C286.241 26.1825 284.472 25.1807 282.876 23.9384C281.396 22.7445 280.216 21.2201 279.432 19.4876C278.519 17.2375 278.096 14.819 278.19 12.3926C278.197 10.925 278.562 9.48132 279.253 8.18646C279.969 6.82541 280.896 5.58671 282.001 4.51666C283.128 3.41647 284.393 2.46753 285.765 1.69374C287.031 0.958432 288.397 0.410118 289.82 0.0658419H293.368C295.342 0.0555502 297.314 0.193954 299.268 0.479873C301.226 0.787944 303.096 1.5097 304.754 2.59707C304.936 2.73508 305.171 2.94209 305.459 3.21811C305.751 3.50041 305.892 3.66977 305.892 3.73564V9.63557H305.582C303.756 8.6946 301.874 7.75362 299.936 6.92556C298.027 6.08315 295.962 5.65039 293.876 5.65524C292.713 5.6474 291.556 5.81229 290.441 6.14453C289.385 6.45633 288.393 6.95685 287.515 7.62187C286.659 8.26591 285.961 9.09608 285.473 10.0496C284.95 11.0941 284.692 12.2507 284.72 13.4183C284.67 14.8317 285.019 16.2308 285.727 17.4551C286.423 18.5442 287.328 19.4845 288.39 20.2215C289.562 21.0315 290.826 21.701 292.154 22.2164C293.556 22.7622 294.977 23.3362 296.454 23.9196C297.932 24.503 299.352 25.1616 300.745 25.8862C302.13 26.5979 303.399 27.5147 304.509 28.6056C305.644 29.7417 306.549 31.087 307.172 32.5671C307.897 34.3914 308.239 36.345 308.179 38.3071C308.218 40.458 307.804 42.5931 306.965 44.5739C306.197 46.3434 305.039 47.9164 303.577 49.1753C302.075 50.4354 300.343 51.3939 298.477 51.9983C296.428 52.6517 294.286 52.9694 292.135 52.9392C290.148 52.9543 288.173 52.6363 286.292 51.9983C284.411 51.3356 282.591 50.5107 280.853 49.5329L279.799 48.8648C279.563 48.7374 279.344 48.5792 279.15 48.3943V41.4029C280.194 42.1274 281.248 42.8332 282.34 43.5013Z" fill="#FCF9F5"/>
<path d="M341 0.366974V5.6929H311.754V0.366974H341ZM341 23.7031V29.0385H311.754V23.7031H341ZM341 47.0487V52.4123H311.754V47.0487H341Z" fill="#FCF9F5"/>
</svg>
