<svg width="40" height="40" viewBox="0 0 40 40" fill="none" xmlns="http://www.w3.org/2000/svg">
<path d="M13.75 10H33.75" stroke="white" stroke-width="2" stroke-linecap="round" stroke-linejoin="round"/>
<path d="M13.751 20H33.75" stroke="white" stroke-width="2" stroke-linecap="round" stroke-linejoin="round"/>
<path d="M13.751 30H33.75" stroke="white" stroke-width="2" stroke-linecap="round" stroke-linejoin="round"/>
<path d="M6.875 11.875C7.91053 11.875 8.75 11.0355 8.75 10C8.75 8.96447 7.91053 8.125 6.875 8.125C5.83947 8.125 5 8.96447 5 10C5 11.0355 5.83947 11.875 6.875 11.875Z" fill="white"/>
<path d="M6.875 21.875C7.91053 21.875 8.75 21.0355 8.75 20C8.75 18.9645 7.91053 18.125 6.875 18.125C5.83947 18.125 5 18.9645 5 20C5 21.0355 5.83947 21.875 6.875 21.875Z" fill="white"/>
<path d="M6.875 31.875C7.91053 31.875 8.75 31.0355 8.75 30C8.75 28.9645 7.91053 28.125 6.875 28.125C5.83947 28.125 5 28.9645 5 30C5 31.0355 5.83947 31.875 6.875 31.875Z" fill="white"/>
</svg>
