<svg width="144" height="24" viewBox="0 0 144 24" fill="none" xmlns="http://www.w3.org/2000/svg">
<path d="M0 3.27365V0.957031H18.7714V3.27365H10.8599V22.9351H8.36844V3.27365H0Z" fill="white"/>
<path d="M16.3477 13.1281V10.8552H29.5917V1.08008H32.0156V22.935H29.5917V13.1281H16.3477Z" fill="white"/>
<path d="M46.0465 0.957031V3.2061H33.6846V0.957031H46.0465ZM46.0465 10.8116V13.0646H33.6846V10.8116H46.0465ZM46.0465 20.6701V22.9351H33.6846V20.6701H46.0465Z" fill="white"/>
<path d="M54.6812 13.1281V10.8552H67.9252V1.08008H70.3491V22.935H67.9252V13.1281H54.6812Z" fill="white"/>
<path d="M72.2523 11.9279C72.239 10.4081 72.5634 8.90429 73.202 7.52512C73.8128 6.19288 74.678 4.99286 75.7491 3.99257C76.8257 2.99364 78.0771 2.2016 79.4406 1.65609C82.2735 0.51698 85.4371 0.51698 88.27 1.65609C89.6343 2.20254 90.8868 2.99445 91.9655 3.99257C93.0329 4.9934 93.8941 6.19348 94.5006 7.52512C95.1189 8.91059 95.4384 10.4107 95.4384 11.9279C95.4384 13.445 95.1189 14.9452 94.5006 16.3307C93.8951 17.6617 93.0337 18.8607 91.9655 19.8592C90.888 20.8599 89.6352 21.6534 88.27 22.1997C85.4361 23.3335 82.2746 23.3335 79.4406 22.1997C78.0761 21.6543 76.8245 20.8607 75.7491 19.8592C74.6773 18.8611 73.8119 17.6623 73.202 16.3307C72.5639 14.9513 72.2396 13.4476 72.2523 11.9279ZM74.8749 11.8603C74.8663 13.0597 75.1072 14.2478 75.5822 15.3492C76.0405 16.4102 76.702 17.3713 77.5293 18.1784C78.3578 18.9824 79.3278 19.6263 80.3903 20.0778C81.4872 20.5394 82.6653 20.7772 83.8553 20.7772C85.0454 20.7772 86.2234 20.5394 87.3203 20.0778C88.3828 19.6263 89.3528 18.9824 90.1813 18.1784C91.0086 17.3713 91.6701 16.4102 92.1284 15.3492C92.5978 14.2466 92.8398 13.0607 92.8398 11.8623C92.8398 10.664 92.5978 9.47802 92.1284 8.37547C91.6711 7.31389 91.0095 6.35259 90.1813 5.54625C89.353 4.74107 88.383 4.0958 87.3203 3.6429C86.2234 3.18128 85.0454 2.94348 83.8553 2.94348C82.6653 2.94348 81.4872 3.18128 80.3903 3.6429C79.3276 4.0958 78.3577 4.74107 77.5293 5.54625C76.7011 6.35259 76.0395 7.31389 75.5822 8.37547C75.1072 9.47544 74.8664 10.6622 74.8749 11.8603Z" fill="white"/>
<path d="M99.5273 1.08008V14.499C99.5337 14.602 99.5483 14.7043 99.571 14.805C99.6002 14.9692 99.636 15.144 99.6783 15.3295C99.7207 15.5149 99.7684 15.7017 99.8214 15.8898C99.873 16.0686 99.9128 16.2037 99.9406 16.2871C100.154 16.9615 100.488 17.5916 100.926 18.1468C101.355 18.6918 101.862 19.17 102.432 19.5654C103.004 19.9605 103.63 20.2697 104.292 20.4833C104.955 20.7015 105.648 20.8128 106.346 20.8131C107.026 20.8138 107.704 20.7175 108.357 20.527C109.005 20.3431 109.623 20.0674 110.193 19.7084C110.761 19.3498 111.273 18.9077 111.71 18.3971C112.159 17.8733 112.518 17.2784 112.771 16.6368C112.799 16.5494 112.839 16.4381 112.891 16.299C112.942 16.16 112.99 16.0209 113.034 15.9017C113.077 15.7825 113.113 15.6394 113.141 15.5401C113.162 15.4754 113.176 15.4089 113.185 15.3414V1.08008H115.501V15.5719C115.496 16.2471 115.347 16.9135 115.064 17.5269C114.156 19.5487 112.589 21.2021 110.618 22.2158C109.23 22.8798 107.709 23.2156 106.171 23.1972C105.024 23.1939 103.888 22.9699 102.825 22.5376C101.781 22.1232 100.822 21.5197 99.9962 20.7574C99.1811 19.9991 98.5212 19.0894 98.0531 18.0792C97.5664 17.0287 97.3194 15.8832 97.3299 14.7255V1.08008H99.5273Z" fill="white"/>
<path d="M119.229 19.1716C119.683 19.4558 120.157 19.7081 120.647 19.9265C121.136 20.1447 121.64 20.3241 122.157 20.463C122.676 20.599 123.21 20.6684 123.747 20.6696C124.26 20.6745 124.769 20.5773 125.245 20.3835C125.691 20.2017 126.097 19.9314 126.437 19.5888C126.774 19.2487 127.038 18.8429 127.212 18.3967C127.395 17.9256 127.486 17.4239 127.482 16.9185V16.0244C127.404 15.7283 127.269 15.4503 127.084 15.2059C126.905 14.966 126.699 14.7461 126.472 14.5502C126.242 14.3489 125.996 14.1656 125.737 14.0019C125.479 13.835 125.221 13.676 124.974 13.533C124.904 13.4787 124.826 13.4346 124.744 13.4019L124.513 13.2906L121.672 12.1661C120.876 11.858 120.129 11.435 119.455 10.9104C118.83 10.4063 118.332 9.76251 118.001 9.03088C117.615 8.08072 117.436 7.05938 117.476 6.03477C117.479 5.41502 117.633 4.80537 117.925 4.25856C118.227 3.68381 118.619 3.16072 119.085 2.70885C119.561 2.24425 120.096 1.84353 120.675 1.51677C121.21 1.20626 121.786 0.974711 122.388 0.829327H123.886C124.719 0.824981 125.552 0.883427 126.377 1.00417C127.204 1.13426 127.994 1.43905 128.694 1.89823C128.77 1.95651 128.87 2.04393 128.992 2.16049C129.115 2.2797 129.174 2.35122 129.174 2.37904V4.8705H129.043C128.272 4.47314 127.478 4.07578 126.659 3.7261C125.853 3.37036 124.981 3.18761 124.1 3.18966C123.609 3.18635 123.12 3.25598 122.65 3.39628C122.204 3.52795 121.785 3.73931 121.414 4.02014C121.053 4.29211 120.758 4.64268 120.552 5.04534C120.331 5.4864 120.222 5.97485 120.234 6.46789C120.213 7.06478 120.36 7.65558 120.659 8.17258C120.953 8.6325 121.335 9.02957 121.784 9.34083C122.279 9.68285 122.812 9.96559 123.373 10.1832C123.965 10.4137 124.565 10.6561 125.189 10.9025C125.813 11.1488 126.413 11.427 127.001 11.7329C127.586 12.0335 128.121 12.4206 128.59 12.8813C129.07 13.3611 129.452 13.9292 129.715 14.5542C130.021 15.3246 130.166 16.1496 130.14 16.9781C130.156 17.8864 129.982 18.788 129.627 19.6245C129.303 20.3718 128.814 21.036 128.197 21.5676C127.562 22.0998 126.831 22.5045 126.043 22.7597C125.178 23.0357 124.273 23.1698 123.365 23.1571C122.526 23.1635 121.692 23.0292 120.897 22.7597C120.103 22.4799 119.335 22.1316 118.601 21.7186L118.156 21.4365C118.056 21.3827 117.964 21.3159 117.881 21.2378V18.2854C118.323 18.5914 118.768 18.8894 119.229 19.1716Z" fill="white"/>
<path d="M144 0.957031V3.2061H131.65V0.957031H144ZM144 10.8116V13.0646H131.65V10.8116H144ZM144 20.6701V22.9351H131.65V20.6701H144Z" fill="white"/>
</svg>
